<?xml version="1.0" encoding="UTF-8" standalone="no"?>
<svg
   xmlns:dc="http://purl.org/dc/elements/1.1/"
   xmlns:cc="http://creativecommons.org/ns#"
   xmlns:rdf="http://www.w3.org/1999/02/22-rdf-syntax-ns#"
   xmlns:svg="http://www.w3.org/2000/svg"
   xmlns="http://www.w3.org/2000/svg"
   xmlns:sodipodi="http://sodipodi.sourceforge.net/DTD/sodipodi-0.dtd"
   xmlns:inkscape="http://www.inkscape.org/namespaces/inkscape"
   inkscape:version="1.0 (4035a4f, 2020-05-01)"
   height="73.599998"
   width="250.45"
   sodipodi:docname="logo.svg"
   xml:space="preserve"
   viewBox="0 0 250.45 73.599997"
   y="0px"
   x="0px"
   id="Layer_1"
   version="1.1"><metadata
   id="metadata162"><rdf:RDF><cc:Work
       rdf:about=""><dc:format>image/svg+xml</dc:format><dc:type
         rdf:resource="http://purl.org/dc/dcmitype/StillImage" /><dc:title></dc:title></cc:Work></rdf:RDF></metadata><defs
   id="defs160" /><sodipodi:namedview
   inkscape:current-layer="Layer_1"
   inkscape:window-maximized="0"
   inkscape:window-y="23"
   inkscape:window-x="0"
   inkscape:cy="41.5"
   inkscape:cx="111.73409"
   inkscape:zoom="3.4188312"
   showgrid="false"
   id="namedview158"
   inkscape:window-height="682"
   inkscape:window-width="1366"
   inkscape:pageshadow="2"
   inkscape:pageopacity="0"
   guidetolerance="10"
   gridtolerance="10"
   objecttolerance="10"
   borderopacity="1"
   bordercolor="#666666"
   pagecolor="#ffffff" />
<style
   id="style105"
   type="text/css">
	.st0{fill:#E22B52;}
	.st1{fill:#666666;}
</style>
<g
   id="Layer_6">
</g>
<g
   id="Layer_4">
</g>
<g
   transform="translate(-37.600002,3.2999992)"
   id="g155">
	<path
   id="path109"
   d="m 204.7,25.2 v 2.5 c 0,1.1 0.3,1.8 1,2.4 0.7,0.5 1.6,0.8 2.9,0.8 h 9.2 c 0.3,0 0.6,0.1 0.7,0.2 0.2,0.1 0.3,0.4 0.3,0.7 0,0.4 -0.1,0.6 -0.3,0.8 -0.1,0.2 -0.4,0.3 -0.7,0.3 H 204.9 V 37 h 15 c 1.3,0 2.3,-0.3 2.9,-0.8 0.7,-0.5 1,-1.4 1,-2.5 v -2.9 c 0,-1.1 -0.3,-1.8 -1,-2.3 -0.7,-0.5 -1.6,-0.8 -2.9,-0.8 h -9.2 c -0.3,0 -0.5,-0.1 -0.7,-0.2 -0.2,-0.1 -0.3,-0.4 -0.3,-0.7 0,-0.3 0.1,-0.5 0.3,-0.7 0.1,-0.2 0.4,-0.2 0.7,-0.2 h 12.7 V 22 h -14.7 c -1.3,0 -2.3,0.3 -2.9,0.8 -0.8,0.4 -1.1,1.3 -1.1,2.4 z"
   class="st0" />
	<path
   id="path111"
   d="m 203.2,21.9 h -6.5 c -2,0 -3.6,0.4 -4.6,1.2 -1,0.8 -1.5,2.1 -1.5,3.7 v 10.1 h 4.9 V 26.8 c 0,-0.7 0.4,-1 1.1,-1 h 6.5 v -3.9 z"
   class="st0" />
	<path
   id="path113"
   d="m 188.1,25.4 c 0,-1.2 -0.3,-2.1 -1,-2.6 -0.6,-0.6 -1.6,-0.9 -2.9,-0.9 h -9.3 c -1.9,0 -3.3,0.4 -4.2,1.1 -0.9,0.7 -1.4,1.7 -1.4,3.1 v 6.3 c 0,1.5 0.5,2.7 1.4,3.4 0.9,0.8 2.3,1.1 4.2,1.1 h 12.9 v -4.1 h -12.5 c -0.8,0 -1.1,-0.3 -1.1,-1 v -0.9 h 10 c 1.3,0 2.3,-0.3 2.9,-0.8 0.7,-0.5 1,-1.4 1,-2.5 z m -5.3,2.3 c -0.2,0.2 -0.4,0.3 -0.7,0.3 h -7.9 v -1 c 0,-0.4 0.1,-0.6 0.3,-0.8 0.2,-0.2 0.5,-0.3 0.9,-0.3 h 6.8 c 0.3,0 0.5,0.1 0.7,0.3 0.1,0.1 0.3,0.4 0.3,0.8 -0.1,0.2 -0.2,0.5 -0.4,0.7 z"
   class="st0" />
	<path
   id="path115"
   d="m 202.9,39.7 h -2 l -0.8,2 H 199 l -0.7,1.7 h 1.1 l -1.9,4.8 h 2 l 1.9,-4.8 h 1.2 l 0.7,-1.7 h -1.2 z"
   class="st1" />
	<path
   id="path117"
   d="m 198.1,39.7 h -2 l -0.8,2 h -1.1 l -0.7,1.7 h 1.1 l -1.9,4.8 h 2.1 l 1.9,-4.8 h 1.2 l 0.7,-1.7 h -1.2 z"
   class="st1" />
	<path
   id="path119"
   d="m 202.2,46.2 c -0.3,0.7 -0.3,1.2 0,1.5 0.3,0.3 0.8,0.5 1.7,0.5 h 5.6 l 0.7,-1.8 h -5.4 c -0.3,0 -0.4,-0.1 -0.3,-0.4 l 0.2,-0.4 h 4.3 c 0.5,0 1,-0.1 1.4,-0.3 0.4,-0.2 0.7,-0.6 0.8,-1.1 l 0.4,-0.9 c 0.2,-0.5 0.2,-0.9 0,-1.2 -0.2,-0.2 -0.5,-0.4 -1.1,-0.4 h -4 c -0.8,0 -1.5,0.2 -2,0.5 -0.5,0.3 -0.9,0.8 -1.1,1.4 z m 6.7,-2 c -0.1,0.1 -0.2,0.1 -0.4,0.1 h -3.4 l 0.2,-0.4 c 0.1,-0.1 0.1,-0.3 0.3,-0.3 0.1,-0.1 0.3,-0.1 0.4,-0.1 h 2.9 c 0.1,0 0.2,0 0.3,0.1 0.1,0.1 0,0.2 0,0.3 -0.2,0.1 -0.3,0.2 -0.3,0.3 z"
   class="st1" />
	<path
   id="path121"
   d="m 193.5,41.7 h -2.1 l -1.5,3.8 H 186 c -0.2,0 -0.3,0 -0.3,-0.1 -0.1,-0.1 -0.1,-0.2 0,-0.3 l 1.3,-3.4 h -2.1 l -1.5,3.9 c -0.2,0.6 -0.3,1 0,1.3 0.2,0.3 0.6,0.4 1.2,0.4 h 4.7 l -0.2,0.7 c -0.1,0.2 -0.2,0.3 -0.4,0.4 -0.2,0.1 -0.4,0.1 -0.6,0.1 h -5.5 l -0.7,1.8 h 5.7 c 0.9,0 1.6,-0.2 2.2,-0.5 0.6,-0.4 1,-0.9 1.3,-1.6 z"
   class="st1" />
	<path
   id="path123"
   d="m 219.7,44.5 c -0.2,-0.2 -0.6,-0.3 -1.1,-0.3 h -4 c -0.1,0 -0.2,0 -0.3,-0.1 0,-0.1 0,-0.2 0,-0.3 0.1,-0.1 0.1,-0.2 0.2,-0.3 0.1,0 0.2,-0.1 0.3,-0.1 h 5.5 l 0.7,-1.7 h -6.3 c -0.6,0 -1,0.1 -1.4,0.4 -0.4,0.2 -0.7,0.6 -0.8,1.1 l -0.4,1.1 c -0.2,0.5 -0.2,0.8 0,1 0.2,0.2 0.6,0.3 1.1,0.3 h 4 c 0.1,0 0.2,0 0.3,0.1 0.1,0.1 0.1,0.2 0,0.3 -0.1,0.1 -0.1,0.3 -0.2,0.4 -0.1,0.1 -0.2,0.1 -0.4,0.1 h -5.6 l -0.7,1.8 h 6.5 c 0.5,0 1,-0.1 1.4,-0.4 0.4,-0.2 0.7,-0.6 0.8,-1.1 l 0.5,-1.3 c 0.1,-0.4 0.1,-0.8 -0.1,-1 z"
   class="st1" />
	<path
   id="path125"
   d="m 220.4,46.2 c -0.3,0.7 -0.3,1.2 0,1.5 0.3,0.3 0.8,0.5 1.6,0.5 h 5.6 l 0.7,-1.8 H 223 c -0.3,0 -0.4,-0.1 -0.3,-0.4 l 0.1,-0.4 h 4.3 c 0.6,0 1.1,-0.1 1.4,-0.3 0.4,-0.2 0.7,-0.6 0.8,-1.1 l 0.3,-0.9 c 0.2,-0.5 0.2,-0.9 0,-1.2 -0.2,-0.2 -0.5,-0.4 -1.1,-0.4 h -4 c -0.8,0 -1.5,0.2 -2,0.5 -0.5,0.3 -0.9,0.8 -1.1,1.4 z m 6.7,-2.8 c 0.1,0 0.2,0 0.3,0.1 0,0.1 0,0.2 0,0.3 -0.1,0.1 -0.1,0.3 -0.3,0.4 -0.1,0.1 -0.2,0.1 -0.3,0.1 h -3.5 l 0.2,-0.4 c 0.1,-0.1 0.1,-0.3 0.3,-0.3 0.1,-0.1 0.3,-0.1 0.4,-0.1 z"
   class="st1" />
	<path
   id="path127"
   d="m 242.8,28.6 c -0.8,0 -1.5,0.2 -1.9,0.5 -0.4,0.4 -0.6,0.8 -0.6,1.5 v 1.3 c 0,0.6 0.2,1 0.6,1.3 0.4,0.3 1.1,0.4 1.9,0.4 h 7 c 0.2,0 0.3,0 0.4,0.1 0.1,0.1 0.1,0.1 0.1,0.2 v 0.7 c 0,0.1 -0.1,0.2 -0.1,0.2 -0.1,0 -0.2,0 -0.4,0 h -9.2 v 2 h 9.2 c 0.8,0 1.5,-0.2 1.9,-0.5 0.4,-0.3 0.6,-0.8 0.6,-1.5 v -1.1 c 0,-0.7 -0.2,-1.2 -0.6,-1.5 -0.4,-0.3 -1.1,-0.5 -1.9,-0.5 h -7 c -0.2,0 -0.3,0 -0.4,-0.1 -0.1,0 -0.1,-0.1 -0.1,-0.2 v -0.6 c 0,-0.1 0.1,-0.2 0.1,-0.2 0.1,-0.1 0.2,-0.1 0.4,-0.1 h 9.2 v -1.9 z"
   class="st0" />
	<path
   id="path129"
   d="m 251.6,39.2 h -2.2 l -0.5,1.4 h 2.1 z"
   class="st1" />
	<path
   id="path131"
   d="m 231.1,28.9 c -0.1,0.1 -0.2,0.2 -0.3,0.4 l -4.4,7.7 h 2.4 l 0.9,-1.6 h 6.8 l 0.9,1.6 h 2.3 l -4.3,-7.7 c -0.1,-0.2 -0.3,-0.4 -0.5,-0.5 -0.2,-0.1 -0.5,-0.2 -0.8,-0.2 H 232 c -0.3,0 -0.5,0 -0.6,0.1 -0.1,0 -0.3,0.1 -0.3,0.2 z m 2.9,2 1.5,2.5 h -4.8 l 1.4,-2.5 c 0.1,-0.1 0.1,-0.2 0.3,-0.3 0.1,-0.1 0.2,-0.1 0.3,-0.1 h 0.8 c 0.1,0 0.2,0 0.3,0.1 0.1,0 0.2,0.1 0.2,0.3 z"
   class="st0" />
	<path
   id="path133"
   d="M 236.8,41.7 H 234 c -0.9,0 -1.6,0.2 -2.2,0.5 -0.6,0.4 -1,0.9 -1.3,1.6 l -1.7,4.4 h 2.1 l 1.7,-4.4 c 0.1,-0.3 0.3,-0.4 0.7,-0.4 h 2.8 z"
   class="st1" />
	<path
   id="path135"
   d="m 253.1,43.8 c 0.1,-0.3 0.3,-0.4 0.7,-0.4 h 4.9 l 0.7,-1.7 h -4.9 c -0.9,0 -1.6,0.2 -2.2,0.5 -0.6,0.4 -1,0.9 -1.3,1.6 l -0.9,2.2 c -0.3,0.7 -0.3,1.3 0,1.6 0.3,0.4 0.9,0.5 1.8,0.5 h 4.9 l 0.7,-1.8 h -5 c -0.2,0 -0.3,0 -0.3,-0.1 0,-0.1 0,-0.2 0,-0.3 z"
   class="st1" />
	<path
   id="path137"
   d="m 248.1,48.2 2.5,-6.5 h -2.1 l -2.5,6.5 z"
   class="st1" />
	<path
   id="path139"
   d="m 241.6,46 c -0.1,0.1 -0.2,0.2 -0.3,0.3 -0.1,0 -0.2,0.1 -0.3,0.1 -0.1,0 -0.1,0 -0.2,0 h -0.3 c -0.1,0 -0.2,0 -0.3,-0.1 -0.1,-0.1 -0.1,-0.2 -0.1,-0.3 l -0.6,-4.3 H 237 l 1.1,5.8 c 0,0.3 0.1,0.4 0.3,0.6 0.1,0.1 0.4,0.2 0.7,0.2 h 1.5 c 0.3,0 0.6,0 0.9,-0.2 0.3,-0.1 0.5,-0.3 0.8,-0.6 l 5.6,-5.8 h -2.4 z"
   class="st1" />
	<path
   id="path141"
   d="m 267.9,43.2 c 0.2,-0.5 0.2,-0.9 0,-1.2 -0.2,-0.2 -0.5,-0.4 -1.1,-0.4 h -4 c -0.8,0 -1.5,0.2 -2,0.5 -0.5,0.3 -0.9,0.8 -1.2,1.4 l -1.1,2.7 c -0.3,0.7 -0.3,1.2 0,1.5 0.3,0.3 0.8,0.5 1.6,0.5 h 5.6 l 0.7,-1.8 H 261 c -0.3,0 -0.4,-0.1 -0.3,-0.4 l 0.1,-0.4 h 4.3 c 0.6,0 1,-0.1 1.4,-0.3 0.4,-0.2 0.7,-0.6 0.8,-1.1 z m -2.6,1 c -0.1,0.1 -0.2,0.1 -0.4,0.1 h -3.5 l 0.2,-0.4 c 0,-0.1 0.1,-0.3 0.3,-0.3 0.1,-0.1 0.3,-0.1 0.4,-0.1 h 2.9 c 0.1,0 0.2,0 0.3,0.1 0,0.1 0,0.2 0,0.3 0,0.1 -0.1,0.2 -0.2,0.3 z"
   class="st1" />
	<path
   id="path143"
   d="M 89.4,17.1 C 89,16.8 88.5,16.7 87.8,16.7 h -5.1 c -0.6,0 -1.1,0.1 -1.6,0.2 -0.4,0.1 -0.8,0.3 -1.2,0.6 -0.4,0.3 -0.8,0.6 -1.2,0.9 L 57.6,36.9 h 5.7 l 4.5,-4 h 16.4 v 4 h 5.7 L 90,18.4 c -0.1,-0.5 -0.3,-1 -0.6,-1.3 z m -5.9,4.3 c 0.3,0 0.4,0 0.6,0.2 0.1,0.1 0.2,0.4 0.2,0.7 v 6.1 H 72.7 l 7,-6.1 c 0.4,-0.3 0.7,-0.5 1,-0.7 0.3,-0.1 0.6,-0.2 0.9,-0.2 z"
   class="st1" />
	<path
   id="path145"
   d="M 117.2,16.7 H 92.8 v 20.2 h 4.9 v -8.1 h 11.4 l 7.9,8.1 h 6.8 l -8.4,-8.3 h 1.7 c 2,0 3.4,-0.4 4.4,-1.3 0.9,-0.9 1.5,-2.1 1.5,-3.9 v -1.8 c 0,-3.2 -1.9,-4.9 -5.8,-4.9 z m 1.1,7.1 c 0,0.3 -0.1,0.5 -0.2,0.6 -0.2,0.1 -0.4,0.2 -0.8,0.2 H 97.8 v -3.2 h 19.4 c 0.4,0 0.7,0.1 0.9,0.2 0.2,0.1 0.3,0.3 0.3,0.6 v 1.6 z"
   class="st0" />
	<path
   id="path147"
   d="m 148.3,22.9 c -1,0.6 -1.5,1.6 -1.5,2.9 v 5 c 0,1.3 0.4,2.3 1.1,2.9 0.7,0.7 1.7,1 3.2,1 h 10.8 v 1.5 c 0,0.4 -0.1,0.8 -0.4,1 -0.3,0.2 -0.7,0.4 -1.2,0.4 h -12.7 v 4.2 h 13.1 c 2,0 3.6,-0.4 4.6,-1.2 1,-0.8 1.5,-2.1 1.5,-3.7 V 25.8 c 0,-1.3 -0.5,-2.3 -1.5,-2.9 -1,-0.7 -2.5,-1 -4.6,-1 h -7.8 c -2.1,0 -3.6,0.3 -4.6,1 z m 3.4,3.9 c 0,-0.3 0.1,-0.6 0.3,-0.7 0.2,-0.2 0.5,-0.3 0.9,-0.3 h 7.8 c 0.8,0 1.1,0.3 1.1,1 v 3.8 h -9 c -0.4,0 -0.7,-0.1 -0.9,-0.2 -0.2,-0.2 -0.3,-0.4 -0.3,-0.8 z"
   class="st0" />
	<path
   id="path149"
   d="m 142.7,23.1 c -1,-0.8 -2.5,-1.2 -4.5,-1.2 h -7.8 c -2,0 -3.6,0.4 -4.6,1.2 -1,0.8 -1.5,2.1 -1.5,3.7 V 32 c 0,1.7 0.5,2.9 1.5,3.7 1,0.8 2.5,1.2 4.6,1.2 h 7.8 c 2,0 3.5,-0.4 4.5,-1.2 1,-0.8 1.5,-2 1.5,-3.7 v -5.2 c 0.1,-1.6 -0.4,-2.9 -1.5,-3.7 z m -4.5,2.7 c 0.4,0 0.7,0.1 0.9,0.3 0.2,0.1 0.3,0.4 0.3,0.7 v 5 c 0,0.3 -0.1,0.6 -0.3,0.7 -0.2,0.2 -0.5,0.3 -0.9,0.3 h -7.8 c -0.4,0 -0.7,-0.1 -0.9,-0.3 -0.2,-0.1 -0.3,-0.4 -0.3,-0.8 v -5 c 0,-0.7 0.4,-1 1.1,-1 z"
   class="st0" />
	<path
   id="path151"
   d="m 172,39.5 c -0.9,0 -1.6,0.2 -2.2,0.5 -0.6,0.4 -1,0.9 -1.3,1.6 l -2.6,6.6 h 2.1 l 1.3,-3.3 h 10 l 0.8,-2 h -10 l 0.4,-1 c 0.1,-0.3 0.3,-0.4 0.7,-0.4 h 9.5 l 0.8,-2 c 0,0 -9.5,0 -9.5,0 z"
   class="st1" />
	<path
   id="path153"
   d="m 184.7,39.2 h -2.1 l -3.5,9 h 2.1 z"
   class="st1" />
</g>
</svg>
